<mxfile host="Electron" modified="2023-06-15T19:54:21.821Z" agent="Mozilla/5.0 (Windows NT 10.0; Win64; x64) AppleWebKit/537.36 (KHTML, like Gecko) draw.io/21.3.7 Chrome/112.0.5615.204 Electron/24.5.0 Safari/537.36" etag="DEt0XNN9C4huzqPzJrhE" version="21.3.7" type="device">
  <diagram id="C5RBs43oDa-KdzZeNtuy" name="Page-1">
    <mxGraphModel dx="1617" dy="1725" grid="1" gridSize="10" guides="1" tooltips="1" connect="1" arrows="1" fold="1" page="1" pageScale="1" pageWidth="827" pageHeight="1169" math="0" shadow="0">
      <root>
        <mxCell id="WIyWlLk6GJQsqaUBKTNV-0" />
        <mxCell id="WIyWlLk6GJQsqaUBKTNV-1" parent="WIyWlLk6GJQsqaUBKTNV-0" />
        <mxCell id="HFD87ZsTar68PI5t0bXh-17" value="" style="edgeStyle=orthogonalEdgeStyle;rounded=0;orthogonalLoop=1;jettySize=auto;html=1;fontSize=13;fontStyle=1;strokeWidth=3;" parent="WIyWlLk6GJQsqaUBKTNV-1" source="HFD87ZsTar68PI5t0bXh-0" target="HFD87ZsTar68PI5t0bXh-8" edge="1">
          <mxGeometry relative="1" as="geometry" />
        </mxCell>
        <mxCell id="HFD87ZsTar68PI5t0bXh-0" value="Start" style="strokeWidth=3;html=1;shape=mxgraph.flowchart.start_1;whiteSpace=wrap;fontSize=13;fontStyle=1" parent="WIyWlLk6GJQsqaUBKTNV-1" vertex="1">
          <mxGeometry x="190" y="-30" width="100" height="40" as="geometry" />
        </mxCell>
        <mxCell id="FwLljS4KVHaQPc9MSkyf-1" value="" style="edgeStyle=orthogonalEdgeStyle;rounded=0;orthogonalLoop=1;jettySize=auto;html=1;strokeWidth=3;" parent="WIyWlLk6GJQsqaUBKTNV-1" source="HFD87ZsTar68PI5t0bXh-5" target="FwLljS4KVHaQPc9MSkyf-0" edge="1">
          <mxGeometry relative="1" as="geometry" />
        </mxCell>
        <mxCell id="HFD87ZsTar68PI5t0bXh-5" value="Get the Audio Files based on Student ID" style="rounded=1;whiteSpace=wrap;html=1;fontSize=13;glass=0;strokeWidth=3;shadow=0;fontStyle=1" parent="WIyWlLk6GJQsqaUBKTNV-1" vertex="1">
          <mxGeometry x="-172.82" y="200" width="170" height="50" as="geometry" />
        </mxCell>
        <mxCell id="HFD87ZsTar68PI5t0bXh-105" value="" style="edgeStyle=orthogonalEdgeStyle;rounded=0;orthogonalLoop=1;jettySize=auto;html=1;fontSize=13;fontStyle=1;strokeWidth=3;" parent="WIyWlLk6GJQsqaUBKTNV-1" source="HFD87ZsTar68PI5t0bXh-6" target="HFD87ZsTar68PI5t0bXh-104" edge="1">
          <mxGeometry relative="1" as="geometry" />
        </mxCell>
        <mxCell id="HFD87ZsTar68PI5t0bXh-6" value="Based on Student ID&amp;nbsp;Generate QR code" style="rounded=1;whiteSpace=wrap;html=1;fontSize=13;glass=0;strokeWidth=3;shadow=0;fontStyle=1" parent="WIyWlLk6GJQsqaUBKTNV-1" vertex="1">
          <mxGeometry x="560" y="200" width="170" height="50" as="geometry" />
        </mxCell>
        <mxCell id="HFD87ZsTar68PI5t0bXh-25" value="" style="edgeStyle=orthogonalEdgeStyle;rounded=0;orthogonalLoop=1;jettySize=auto;html=1;fontSize=13;fontStyle=1;strokeWidth=3;" parent="WIyWlLk6GJQsqaUBKTNV-1" source="HFD87ZsTar68PI5t0bXh-7" target="HFD87ZsTar68PI5t0bXh-24" edge="1">
          <mxGeometry relative="1" as="geometry" />
        </mxCell>
        <mxCell id="HFD87ZsTar68PI5t0bXh-7" value="Access Bigquery API" style="rounded=1;whiteSpace=wrap;html=1;fontSize=13;glass=0;strokeWidth=3;shadow=0;fontStyle=1" parent="WIyWlLk6GJQsqaUBKTNV-1" vertex="1">
          <mxGeometry x="155" y="200" width="170" height="50" as="geometry" />
        </mxCell>
        <mxCell id="HFD87ZsTar68PI5t0bXh-11" value="" style="edgeStyle=orthogonalEdgeStyle;rounded=0;orthogonalLoop=1;jettySize=auto;html=1;fontSize=13;fontStyle=1;strokeWidth=3;" parent="WIyWlLk6GJQsqaUBKTNV-1" source="HFD87ZsTar68PI5t0bXh-8" target="HFD87ZsTar68PI5t0bXh-6" edge="1">
          <mxGeometry relative="1" as="geometry">
            <mxPoint x="360" y="110" as="targetPoint" />
          </mxGeometry>
        </mxCell>
        <mxCell id="HFD87ZsTar68PI5t0bXh-13" style="edgeStyle=orthogonalEdgeStyle;rounded=0;orthogonalLoop=1;jettySize=auto;html=1;entryX=0.5;entryY=0;entryDx=0;entryDy=0;fontSize=13;fontStyle=1;strokeWidth=3;" parent="WIyWlLk6GJQsqaUBKTNV-1" source="HFD87ZsTar68PI5t0bXh-8" target="HFD87ZsTar68PI5t0bXh-5" edge="1">
          <mxGeometry relative="1" as="geometry" />
        </mxCell>
        <mxCell id="HFD87ZsTar68PI5t0bXh-14" style="edgeStyle=orthogonalEdgeStyle;rounded=0;orthogonalLoop=1;jettySize=auto;html=1;exitX=0.5;exitY=1;exitDx=0;exitDy=0;entryX=0.5;entryY=0;entryDx=0;entryDy=0;fontSize=13;fontStyle=1;strokeWidth=3;" parent="WIyWlLk6GJQsqaUBKTNV-1" source="HFD87ZsTar68PI5t0bXh-8" target="HFD87ZsTar68PI5t0bXh-7" edge="1">
          <mxGeometry relative="1" as="geometry" />
        </mxCell>
        <mxCell id="HFD87ZsTar68PI5t0bXh-8" value="Namcoach API or &lt;br style=&quot;font-size: 13px;&quot;&gt;Google form" style="shape=parallelogram;html=1;strokeWidth=3;perimeter=parallelogramPerimeter;whiteSpace=wrap;rounded=1;arcSize=12;size=0.23;fontSize=13;fontStyle=1" parent="WIyWlLk6GJQsqaUBKTNV-1" vertex="1">
          <mxGeometry x="150" y="70" width="180" height="80" as="geometry" />
        </mxCell>
        <mxCell id="HFD87ZsTar68PI5t0bXh-27" value="" style="edgeStyle=orthogonalEdgeStyle;rounded=0;orthogonalLoop=1;jettySize=auto;html=1;fontSize=13;fontStyle=1;strokeWidth=3;" parent="WIyWlLk6GJQsqaUBKTNV-1" source="HFD87ZsTar68PI5t0bXh-24" target="HFD87ZsTar68PI5t0bXh-26" edge="1">
          <mxGeometry relative="1" as="geometry" />
        </mxCell>
        <mxCell id="HFD87ZsTar68PI5t0bXh-48" value="" style="edgeStyle=orthogonalEdgeStyle;rounded=0;orthogonalLoop=1;jettySize=auto;html=1;fontSize=13;fontStyle=1;strokeWidth=3;" parent="WIyWlLk6GJQsqaUBKTNV-1" source="HFD87ZsTar68PI5t0bXh-24" target="HFD87ZsTar68PI5t0bXh-45" edge="1">
          <mxGeometry relative="1" as="geometry" />
        </mxCell>
        <mxCell id="HFD87ZsTar68PI5t0bXh-24" value="Check &lt;br style=&quot;font-size: 13px;&quot;&gt;Bigquery &lt;br style=&quot;font-size: 13px;&quot;&gt;database already exists?&amp;nbsp;" style="rhombus;whiteSpace=wrap;html=1;rounded=1;glass=0;strokeWidth=3;shadow=0;direction=west;fontSize=13;fontStyle=1" parent="WIyWlLk6GJQsqaUBKTNV-1" vertex="1">
          <mxGeometry x="165" y="285" width="150" height="115" as="geometry" />
        </mxCell>
        <mxCell id="HFD87ZsTar68PI5t0bXh-26" value="Create a database" style="rounded=1;whiteSpace=wrap;html=1;glass=0;strokeWidth=3;shadow=0;fontSize=13;fontStyle=1" parent="WIyWlLk6GJQsqaUBKTNV-1" vertex="1">
          <mxGeometry x="355" y="312.5" width="120" height="60" as="geometry" />
        </mxCell>
        <mxCell id="HFD87ZsTar68PI5t0bXh-28" value="No" style="text;html=1;align=center;verticalAlign=middle;resizable=0;points=[];autosize=1;strokeColor=none;fillColor=none;fontSize=13;fontStyle=1;strokeWidth=3;" parent="WIyWlLk6GJQsqaUBKTNV-1" vertex="1">
          <mxGeometry x="310" y="315" width="40" height="30" as="geometry" />
        </mxCell>
        <mxCell id="HFD87ZsTar68PI5t0bXh-44" value="" style="edgeStyle=orthogonalEdgeStyle;rounded=0;orthogonalLoop=1;jettySize=auto;html=1;fontSize=13;fontStyle=1;strokeWidth=3;" parent="WIyWlLk6GJQsqaUBKTNV-1" source="HFD87ZsTar68PI5t0bXh-45" target="HFD87ZsTar68PI5t0bXh-46" edge="1">
          <mxGeometry relative="1" as="geometry" />
        </mxCell>
        <mxCell id="HFD87ZsTar68PI5t0bXh-54" value="" style="edgeStyle=orthogonalEdgeStyle;rounded=0;orthogonalLoop=1;jettySize=auto;html=1;fontSize=13;fontStyle=1;strokeWidth=3;" parent="WIyWlLk6GJQsqaUBKTNV-1" source="HFD87ZsTar68PI5t0bXh-45" target="HFD87ZsTar68PI5t0bXh-50" edge="1">
          <mxGeometry relative="1" as="geometry" />
        </mxCell>
        <mxCell id="HFD87ZsTar68PI5t0bXh-45" value="Check &lt;br style=&quot;font-size: 13px;&quot;&gt;Bigquery &lt;br style=&quot;font-size: 13px;&quot;&gt;table already &lt;br style=&quot;font-size: 13px;&quot;&gt;exists?&amp;nbsp;" style="rhombus;whiteSpace=wrap;html=1;rounded=1;glass=0;strokeWidth=3;shadow=0;fontSize=13;fontStyle=1" parent="WIyWlLk6GJQsqaUBKTNV-1" vertex="1">
          <mxGeometry x="170" y="434.5" width="140" height="100" as="geometry" />
        </mxCell>
        <mxCell id="HFD87ZsTar68PI5t0bXh-46" value="Create a table" style="rounded=1;whiteSpace=wrap;html=1;glass=0;strokeWidth=3;shadow=0;fontSize=13;fontStyle=1" parent="WIyWlLk6GJQsqaUBKTNV-1" vertex="1">
          <mxGeometry x="355" y="455" width="120" height="60" as="geometry" />
        </mxCell>
        <mxCell id="HFD87ZsTar68PI5t0bXh-47" value="No" style="text;html=1;align=center;verticalAlign=middle;resizable=0;points=[];autosize=1;strokeColor=none;fillColor=none;fontSize=13;fontStyle=1;strokeWidth=3;" parent="WIyWlLk6GJQsqaUBKTNV-1" vertex="1">
          <mxGeometry x="310" y="452.5" width="40" height="30" as="geometry" />
        </mxCell>
        <mxCell id="HFD87ZsTar68PI5t0bXh-84" value="" style="edgeStyle=orthogonalEdgeStyle;rounded=0;orthogonalLoop=1;jettySize=auto;html=1;fontSize=13;fontStyle=1;strokeWidth=3;" parent="WIyWlLk6GJQsqaUBKTNV-1" source="HFD87ZsTar68PI5t0bXh-50" target="HFD87ZsTar68PI5t0bXh-83" edge="1">
          <mxGeometry relative="1" as="geometry" />
        </mxCell>
        <mxCell id="O80k9jahpUldKJ10qQsK-3" value="" style="edgeStyle=orthogonalEdgeStyle;rounded=0;orthogonalLoop=1;jettySize=auto;html=1;strokeWidth=3;" parent="WIyWlLk6GJQsqaUBKTNV-1" source="HFD87ZsTar68PI5t0bXh-50" target="HFD87ZsTar68PI5t0bXh-81" edge="1">
          <mxGeometry relative="1" as="geometry" />
        </mxCell>
        <mxCell id="HFD87ZsTar68PI5t0bXh-50" value="Check &lt;br style=&quot;font-size: 13px;&quot;&gt;Student ID data&lt;br style=&quot;font-size: 13px;&quot;&gt;already &lt;br style=&quot;font-size: 13px;&quot;&gt;exists?&amp;nbsp;" style="rhombus;whiteSpace=wrap;html=1;rounded=1;glass=0;strokeWidth=3;shadow=0;fontSize=13;fontStyle=1" parent="WIyWlLk6GJQsqaUBKTNV-1" vertex="1">
          <mxGeometry x="175" y="570" width="130" height="120" as="geometry" />
        </mxCell>
        <mxCell id="HFD87ZsTar68PI5t0bXh-52" value="No" style="text;html=1;align=center;verticalAlign=middle;resizable=0;points=[];autosize=1;strokeColor=none;fillColor=none;fontSize=13;fontStyle=1;strokeWidth=3;" parent="WIyWlLk6GJQsqaUBKTNV-1" vertex="1">
          <mxGeometry x="305" y="600" width="40" height="30" as="geometry" />
        </mxCell>
        <mxCell id="HFD87ZsTar68PI5t0bXh-57" value="Yes" style="text;html=1;align=center;verticalAlign=middle;resizable=0;points=[];autosize=1;strokeColor=none;fillColor=none;fontSize=13;fontStyle=1;strokeWidth=3;" parent="WIyWlLk6GJQsqaUBKTNV-1" vertex="1">
          <mxGeometry x="230" y="690" width="50" height="30" as="geometry" />
        </mxCell>
        <mxCell id="HFD87ZsTar68PI5t0bXh-81" value="Replace already &lt;br style=&quot;font-size: 13px;&quot;&gt;existed data" style="shape=parallelogram;html=1;strokeWidth=3;perimeter=parallelogramPerimeter;whiteSpace=wrap;rounded=1;arcSize=12;size=0.23;fontSize=13;fontStyle=1" parent="WIyWlLk6GJQsqaUBKTNV-1" vertex="1">
          <mxGeometry x="162.5" y="740" width="155" height="60" as="geometry" />
        </mxCell>
        <mxCell id="HFD87ZsTar68PI5t0bXh-83" value="Write text data &lt;br style=&quot;font-size: 13px;&quot;&gt;in row" style="shape=parallelogram;html=1;strokeWidth=3;perimeter=parallelogramPerimeter;whiteSpace=wrap;rounded=1;arcSize=12;size=0.23;fontSize=13;fontStyle=1" parent="WIyWlLk6GJQsqaUBKTNV-1" vertex="1">
          <mxGeometry x="339" y="600" width="150" height="60" as="geometry" />
        </mxCell>
        <mxCell id="HFD87ZsTar68PI5t0bXh-115" value="" style="edgeStyle=orthogonalEdgeStyle;rounded=0;orthogonalLoop=1;jettySize=auto;html=1;fontSize=13;fontStyle=1;strokeWidth=3;" parent="WIyWlLk6GJQsqaUBKTNV-1" source="HFD87ZsTar68PI5t0bXh-104" target="HFD87ZsTar68PI5t0bXh-108" edge="1">
          <mxGeometry relative="1" as="geometry" />
        </mxCell>
        <mxCell id="HFD87ZsTar68PI5t0bXh-104" value="Access cloud storage API" style="whiteSpace=wrap;html=1;rounded=1;glass=0;strokeWidth=3;shadow=0;fontSize=13;fontStyle=1" parent="WIyWlLk6GJQsqaUBKTNV-1" vertex="1">
          <mxGeometry x="585" y="285" width="120" height="60" as="geometry" />
        </mxCell>
        <mxCell id="HFD87ZsTar68PI5t0bXh-106" value="" style="edgeStyle=orthogonalEdgeStyle;rounded=0;orthogonalLoop=1;jettySize=auto;html=1;fontSize=13;fontStyle=1;strokeWidth=3;" parent="WIyWlLk6GJQsqaUBKTNV-1" source="HFD87ZsTar68PI5t0bXh-108" target="HFD87ZsTar68PI5t0bXh-111" edge="1">
          <mxGeometry relative="1" as="geometry" />
        </mxCell>
        <mxCell id="HFD87ZsTar68PI5t0bXh-107" value="" style="edgeStyle=orthogonalEdgeStyle;rounded=0;orthogonalLoop=1;jettySize=auto;html=1;fontSize=13;fontStyle=1;strokeWidth=3;" parent="WIyWlLk6GJQsqaUBKTNV-1" source="HFD87ZsTar68PI5t0bXh-108" target="HFD87ZsTar68PI5t0bXh-112" edge="1">
          <mxGeometry relative="1" as="geometry" />
        </mxCell>
        <mxCell id="HFD87ZsTar68PI5t0bXh-108" value="Check existing&lt;br style=&quot;font-size: 13px;&quot;&gt;file with &lt;br style=&quot;font-size: 13px;&quot;&gt;same name" style="rhombus;whiteSpace=wrap;html=1;rounded=1;glass=0;strokeWidth=3;shadow=0;fontSize=13;fontStyle=1" parent="WIyWlLk6GJQsqaUBKTNV-1" vertex="1">
          <mxGeometry x="570" y="390" width="150" height="125" as="geometry" />
        </mxCell>
        <mxCell id="HFD87ZsTar68PI5t0bXh-109" value="Yes" style="text;html=1;align=center;verticalAlign=middle;resizable=0;points=[];autosize=1;strokeColor=none;fillColor=none;fontSize=13;fontStyle=1;strokeWidth=3;" parent="WIyWlLk6GJQsqaUBKTNV-1" vertex="1">
          <mxGeometry x="730" y="420" width="50" height="30" as="geometry" />
        </mxCell>
        <mxCell id="HFD87ZsTar68PI5t0bXh-110" value="No" style="text;html=1;align=center;verticalAlign=middle;resizable=0;points=[];autosize=1;strokeColor=none;fillColor=none;fontSize=13;fontStyle=1;strokeWidth=3;" parent="WIyWlLk6GJQsqaUBKTNV-1" vertex="1">
          <mxGeometry x="650.63" y="520" width="40" height="30" as="geometry" />
        </mxCell>
        <mxCell id="HFD87ZsTar68PI5t0bXh-111" value="Replace already &lt;br style=&quot;font-size: 13px;&quot;&gt;existed data" style="shape=parallelogram;html=1;strokeWidth=3;perimeter=parallelogramPerimeter;whiteSpace=wrap;rounded=1;arcSize=12;size=0.23;fontSize=13;fontStyle=1" parent="WIyWlLk6GJQsqaUBKTNV-1" vertex="1">
          <mxGeometry x="780" y="422.5" width="160" height="60" as="geometry" />
        </mxCell>
        <mxCell id="TRQf9JHlZNVoiPhSfagF-1" value="" style="edgeStyle=orthogonalEdgeStyle;rounded=0;orthogonalLoop=1;jettySize=auto;html=1;strokeWidth=3;" parent="WIyWlLk6GJQsqaUBKTNV-1" source="HFD87ZsTar68PI5t0bXh-112" target="TRQf9JHlZNVoiPhSfagF-0" edge="1">
          <mxGeometry relative="1" as="geometry" />
        </mxCell>
        <mxCell id="HFD87ZsTar68PI5t0bXh-112" value="Upload the file&lt;br style=&quot;font-size: 13px;&quot;&gt;in folder" style="shape=parallelogram;html=1;strokeWidth=3;perimeter=parallelogramPerimeter;whiteSpace=wrap;rounded=1;arcSize=12;size=0.23;fontSize=13;fontStyle=1" parent="WIyWlLk6GJQsqaUBKTNV-1" vertex="1">
          <mxGeometry x="565" y="560" width="160" height="50" as="geometry" />
        </mxCell>
        <mxCell id="FwLljS4KVHaQPc9MSkyf-3" value="" style="edgeStyle=orthogonalEdgeStyle;rounded=0;orthogonalLoop=1;jettySize=auto;html=1;strokeWidth=3;" parent="WIyWlLk6GJQsqaUBKTNV-1" source="FwLljS4KVHaQPc9MSkyf-0" target="FwLljS4KVHaQPc9MSkyf-2" edge="1">
          <mxGeometry relative="1" as="geometry" />
        </mxCell>
        <mxCell id="FwLljS4KVHaQPc9MSkyf-0" value="Normalization of audio file&amp;nbsp;" style="rounded=1;whiteSpace=wrap;html=1;fontSize=13;glass=0;strokeWidth=3;shadow=0;fontStyle=1;" parent="WIyWlLk6GJQsqaUBKTNV-1" vertex="1">
          <mxGeometry x="-160.32" y="290" width="145" height="65" as="geometry" />
        </mxCell>
        <mxCell id="FwLljS4KVHaQPc9MSkyf-13" value="" style="edgeStyle=orthogonalEdgeStyle;rounded=0;orthogonalLoop=1;jettySize=auto;html=1;strokeWidth=3;" parent="WIyWlLk6GJQsqaUBKTNV-1" source="FwLljS4KVHaQPc9MSkyf-2" target="FwLljS4KVHaQPc9MSkyf-5" edge="1">
          <mxGeometry relative="1" as="geometry" />
        </mxCell>
        <mxCell id="FwLljS4KVHaQPc9MSkyf-2" value="Anonymization and conversion to MP3 format of Audio files" style="rounded=1;whiteSpace=wrap;html=1;fontSize=13;glass=0;strokeWidth=3;shadow=0;fontStyle=1;" parent="WIyWlLk6GJQsqaUBKTNV-1" vertex="1">
          <mxGeometry x="-160.32" y="390" width="145" height="70" as="geometry" />
        </mxCell>
        <mxCell id="FwLljS4KVHaQPc9MSkyf-4" value="" style="edgeStyle=orthogonalEdgeStyle;rounded=0;orthogonalLoop=1;jettySize=auto;html=1;fontSize=13;fontStyle=1;strokeWidth=3;" parent="WIyWlLk6GJQsqaUBKTNV-1" source="FwLljS4KVHaQPc9MSkyf-5" target="FwLljS4KVHaQPc9MSkyf-8" edge="1">
          <mxGeometry relative="1" as="geometry" />
        </mxCell>
        <mxCell id="FwLljS4KVHaQPc9MSkyf-5" value="Access cloud storage API" style="whiteSpace=wrap;html=1;rounded=1;glass=0;strokeWidth=3;shadow=0;fontSize=13;fontStyle=1" parent="WIyWlLk6GJQsqaUBKTNV-1" vertex="1">
          <mxGeometry x="-147.82" y="490" width="120" height="60" as="geometry" />
        </mxCell>
        <mxCell id="FwLljS4KVHaQPc9MSkyf-6" value="" style="edgeStyle=orthogonalEdgeStyle;rounded=0;orthogonalLoop=1;jettySize=auto;html=1;fontSize=13;fontStyle=1;strokeWidth=3;" parent="WIyWlLk6GJQsqaUBKTNV-1" source="FwLljS4KVHaQPc9MSkyf-8" target="FwLljS4KVHaQPc9MSkyf-11" edge="1">
          <mxGeometry relative="1" as="geometry" />
        </mxCell>
        <mxCell id="FwLljS4KVHaQPc9MSkyf-7" value="" style="edgeStyle=orthogonalEdgeStyle;rounded=0;orthogonalLoop=1;jettySize=auto;html=1;fontSize=13;fontStyle=1;strokeWidth=3;" parent="WIyWlLk6GJQsqaUBKTNV-1" source="FwLljS4KVHaQPc9MSkyf-8" target="FwLljS4KVHaQPc9MSkyf-12" edge="1">
          <mxGeometry relative="1" as="geometry" />
        </mxCell>
        <mxCell id="FwLljS4KVHaQPc9MSkyf-8" value="Check existing&lt;br style=&quot;font-size: 13px;&quot;&gt;file with &lt;br style=&quot;font-size: 13px;&quot;&gt;same name" style="rhombus;whiteSpace=wrap;html=1;rounded=1;glass=0;strokeWidth=3;shadow=0;fontSize=13;fontStyle=1" parent="WIyWlLk6GJQsqaUBKTNV-1" vertex="1">
          <mxGeometry x="-155" y="587.5" width="134.37" height="123" as="geometry" />
        </mxCell>
        <mxCell id="FwLljS4KVHaQPc9MSkyf-9" value="Yes" style="text;html=1;align=center;verticalAlign=middle;resizable=0;points=[];autosize=1;strokeColor=none;fillColor=none;fontSize=13;fontStyle=1;strokeWidth=3;" parent="WIyWlLk6GJQsqaUBKTNV-1" vertex="1">
          <mxGeometry x="-205" y="617.5" width="50" height="30" as="geometry" />
        </mxCell>
        <mxCell id="FwLljS4KVHaQPc9MSkyf-10" value="No" style="text;html=1;align=center;verticalAlign=middle;resizable=0;points=[];autosize=1;strokeColor=none;fillColor=none;fontSize=13;fontStyle=1;strokeWidth=3;" parent="WIyWlLk6GJQsqaUBKTNV-1" vertex="1">
          <mxGeometry x="-82.82" y="717.5" width="40" height="30" as="geometry" />
        </mxCell>
        <mxCell id="FwLljS4KVHaQPc9MSkyf-11" value="Replace already &lt;br style=&quot;font-size: 13px;&quot;&gt;existed data" style="shape=parallelogram;html=1;strokeWidth=3;perimeter=parallelogramPerimeter;whiteSpace=wrap;rounded=1;arcSize=12;size=0.23;fontSize=13;fontStyle=1" parent="WIyWlLk6GJQsqaUBKTNV-1" vertex="1">
          <mxGeometry x="-370" y="620" width="165" height="56.5" as="geometry" />
        </mxCell>
        <mxCell id="FwLljS4KVHaQPc9MSkyf-12" value="Upload the file&lt;br style=&quot;font-size: 13px;&quot;&gt;in folder" style="shape=parallelogram;html=1;strokeWidth=3;perimeter=parallelogramPerimeter;whiteSpace=wrap;rounded=1;arcSize=12;size=0.23;fontSize=13;fontStyle=1" parent="WIyWlLk6GJQsqaUBKTNV-1" vertex="1">
          <mxGeometry x="-160.32" y="757.5" width="145" height="50" as="geometry" />
        </mxCell>
        <mxCell id="TRQf9JHlZNVoiPhSfagF-0" value="Send the QR code&lt;br style=&quot;border-color: var(--border-color);&quot;&gt;&amp;nbsp;to students mentioned&lt;br style=&quot;border-color: var(--border-color);&quot;&gt;&amp;nbsp;Email Address" style="shape=parallelogram;perimeter=parallelogramPerimeter;whiteSpace=wrap;html=1;fixedSize=1;fontSize=13;strokeWidth=3;rounded=1;arcSize=12;fontStyle=1;" parent="WIyWlLk6GJQsqaUBKTNV-1" vertex="1">
          <mxGeometry x="553.12" y="660" width="183.75" height="80" as="geometry" />
        </mxCell>
      </root>
    </mxGraphModel>
  </diagram>
</mxfile>
